<?xml version="1.0" encoding="UTF-8"?>
<svg width="163px" height="20px" viewBox="0 0 163 20" version="1.1" xmlns="http://www.w3.org/2000/svg" xmlns:xlink="http://www.w3.org/1999/xlink">
    <title>Group</title>
    <defs>
        <linearGradient x1="-0.989033051%" y1="44.654399%" x2="94.5302083%" y2="55.1102497%" id="linearGradient-1">
            <stop stop-color="#FFB980" offset="0%"></stop>
            <stop stop-color="#BC65BD" offset="46.3587194%"></stop>
            <stop stop-color="#3C3DFF" offset="100%"></stop>
        </linearGradient>
    </defs>
    <g id="Onboarding-freelancer" stroke="none" stroke-width="1" fill="none" fill-rule="evenodd">
        <g id="Onboarding-freelancer-1-2-1" transform="translate(-60.000000, -22.000000)" fill-rule="nonzero">
            <g id="Group" transform="translate(60.000000, 22.000000)">
                <path d="M91.984,18.992 C93.136,18.992 94.056,18.68 94.744,18.056 C95.144,17.704 95.456,17.256 95.68,16.712 C95.872,16.2 95.968,15.616 95.968,14.96 L95.968,6.32 C95.968,4.976 95.568,3.936 94.768,3.2 C94.048,2.528 93.12,2.192 91.984,2.192 L88,2.192 L88,18.992 L91.984,18.992 Z M91.984,16.352 L90.64,16.352 L90.64,4.832 L91.984,4.832 C92.432,4.832 92.76,4.928 92.968,5.12 C93.208,5.36 93.328,5.76 93.328,6.32 L93.328,14.96 C93.328,15.52 93.216,15.896 92.992,16.088 C92.8,16.264 92.464,16.352 91.984,16.352 Z M99.616,18.992 L100.096,16.328 L103.12,16.328 L103.6,18.992 L106.288,18.992 L102.928,2.192 L100.288,2.192 L96.928,18.992 L99.616,18.992 Z M102.664,13.688 L100.552,13.688 L101.608,7.664 L102.664,13.688 Z M111.232,18.992 L111.232,4.832 L113.92,4.832 L113.92,2.192 L105.904,2.192 L105.904,4.832 L108.592,4.832 L108.592,18.992 L111.232,18.992 Z M117.736,18.992 L117.736,2.192 L115.096,2.192 L115.096,18.992 L117.736,18.992 Z M123.256,19.184 C124.408,19.184 125.336,18.856 126.04,18.2 C126.84,17.432 127.24,16.384 127.24,15.056 L127.24,14 C127.24,12.464 126.648,11.168 125.464,10.112 C125.144,9.824 124.568,9.456 123.736,9.008 C123.272,8.752 122.96,8.56 122.8,8.432 C122.208,7.904 121.912,7.272 121.912,6.536 L121.912,6.128 C121.912,5.552 122.032,5.152 122.272,4.928 C122.48,4.736 122.808,4.64 123.256,4.64 C123.72,4.64 124.048,4.736 124.24,4.928 C124.48,5.136 124.6,5.536 124.6,6.128 L124.6,7.592 L127.24,7.592 L127.24,6.128 C127.24,4.8 126.84,3.752 126.04,2.984 C125.336,2.328 124.408,2 123.256,2 C122.104,2 121.176,2.328 120.472,2.984 C119.672,3.752 119.272,4.8 119.272,6.128 L119.272,6.536 C119.272,7.288 119.424,7.992 119.728,8.648 C120.032,9.304 120.472,9.888 121.048,10.4 C121.4,10.704 121.952,11.056 122.704,11.456 C123.248,11.76 123.584,11.968 123.712,12.08 C124.304,12.624 124.6,13.264 124.6,14 L124.6,15.056 C124.6,15.648 124.48,16.048 124.24,16.256 C124.048,16.448 123.72,16.544 123.256,16.544 C122.808,16.544 122.48,16.448 122.272,16.256 C122.032,16.032 121.912,15.632 121.912,15.056 L121.912,12.872 L119.272,12.872 L119.272,15.056 C119.272,16.384 119.672,17.432 120.472,18.2 C121.176,18.856 122.104,19.184 123.256,19.184 Z M131.416,18.992 L131.416,11.696 L134.416,11.696 L134.416,9.056 L131.416,9.056 L131.416,4.832 L135.736,4.832 L135.736,2.192 L128.776,2.192 L128.776,18.992 L131.416,18.992 Z M143.992,18.992 L143.992,16.352 L139.672,16.352 L139.672,2.192 L137.032,2.192 L137.032,18.992 L143.992,18.992 Z M152.224,18.992 L152.224,16.352 L147.904,16.352 L147.904,11.696 L150.88,11.696 L150.88,9.056 L147.904,9.056 L147.904,4.832 L152.224,4.832 L152.224,2.192 L145.264,2.192 L145.264,18.992 L152.224,18.992 Z M156.064,18.992 L157.912,14.024 L159.784,18.992 L162.592,18.992 L159.448,10.616 L162.592,2.192 L159.76,2.192 L157.912,7.16 L156.064,2.192 L153.256,2.192 L156.376,10.616 L153.256,18.992 L156.064,18.992 Z" id="DATISFLEX" fill="#FFFFFF"></path>
                <path d="M4.24631922,20 C3.63414469,20 3.01192183,19.867053 2.42293573,19.5857001 C0.308923922,18.5762304 -0.593105979,16.0541023 0.409407116,13.9362257 C0.976750687,12.7373839 6.24129709,2.16036837 16.0399544,0.338530768 C21.7551293,-0.71886161 27.4556181,1.41756568 32.9968798,6.69679809 C36.6583328,10.1835649 40.0925392,11.6745809 43.1982428,11.1311987 C48.142016,10.2662703 52.1111021,4.35399378 53.1120693,2.35128643 C54.1625052,0.251187684 56.7132324,-0.599827672 58.81565,0.449062281 C60.9157487,1.49872518 61.7667641,4.05177125 60.7178741,6.15264295 C60.4821251,6.62414101 54.8256942,17.7298528 44.6629786,19.5060865 C38.7507021,20.5441551 32.8538845,18.3010611 27.133299,12.8533261 C23.6851795,9.56984449 20.4828574,8.16926335 17.6159946,8.6940948 C12.8956034,9.55593143 9.13753192,15.4055992 8.08786902,17.5868575 C7.35511465,19.1087914 5.83163484,20 4.24631922,20 Z" id="Path" fill="url(#linearGradient-1)"></path>
            </g>
        </g>
    </g>
</svg>