<svg id="Group_3" data-name="Group 3" xmlns="http://www.w3.org/2000/svg" width="55.971" height="70.527" viewBox="0 0 55.971 70.527">
  <path id="Path_1" data-name="Path 1" d="M382.372,434.067h-11.3l-6.885-11.22,8.545-2.62Z" transform="translate(-326.401 -377.188)" fill="#238fff"/>
  <path id="Path_2" data-name="Path 2" d="M264.275,193.927H245.847v8.806h18.117a11.075,11.075,0,0,1,11.075,11.075h0a11.074,11.074,0,0,1-11.075,11.074H245.847v8.828h18.428a19.892,19.892,0,0,0,19.891-19.892h0A19.892,19.892,0,0,0,264.275,193.927Z" transform="translate(-230.571 -193.927)" fill="#238fff"/>
  <rect id="Rectangle_1" data-name="Rectangle 1" width="7.905" height="7.905" transform="translate(0 0)" fill="#238fff"/>
  <rect id="Rectangle_2" data-name="Rectangle 2" width="7.905" height="40.177" transform="translate(0 16.336)" fill="#238fff"/>
  <g id="Group_2" data-name="Group 2" transform="translate(0.605 63.618)">
    <g id="Group_1" data-name="Group 1" transform="translate(0)">
      <path id="Path_3" data-name="Path 3" d="M171.257,535.34c-1.441,0-2.55-.739-2.55-1.934h1.265a1.134,1.134,0,0,0,1.285,1c.829,0,1.3-.418,1.3-.991,0-1.632-3.825-.573-3.825-3.061,0-1.186,1.005-1.924,2.477-1.924,1.378,0,2.353.68,2.457,1.836h-1.306c-.041-.457-.467-.874-1.213-.894-.684-.02-1.213.291-1.213.943,0,1.525,3.815.573,3.815,3.041C173.745,534.368,172.863,535.34,171.257,535.34Z" transform="translate(-168.707 -528.431)" fill="#0c335b"/>
      <path id="Path_4" data-name="Path 4" d="M204.163,535.34a3.461,3.461,0,1,1,3.68-3.459A3.5,3.5,0,0,1,204.163,535.34Zm0-.962a2.488,2.488,0,1,0-2.467-2.5A2.357,2.357,0,0,0,204.163,534.378Z" transform="translate(-194.44 -528.431)" fill="#0c335b"/>
      <path id="Path_5" data-name="Path 5" d="M246.469,528.89v5.859H248.9v.894h-3.618V528.89Z" transform="translate(-230.723 -528.803)" fill="#0c335b"/>
      <path id="Path_6" data-name="Path 6" d="M269.432,528.89h1.182v4.3a1.635,1.635,0,0,0,3.265,0v-4.3h1.182v4.285a2.536,2.536,0,0,1-2.83,2.536,2.505,2.505,0,0,1-2.8-2.536Z" transform="translate(-250.276 -528.803)" fill="#0c335b"/>
      <path id="Path_7" data-name="Path 7" d="M305.134,528.89h5.027v.9h-1.917v5.849h-1.182v-5.849h-1.928Z" transform="translate(-279.187 -528.803)" fill="#0c335b"/>
      <path id="Path_8" data-name="Path 8" d="M337.836,528.89h1.182v6.753h-1.182Z" transform="translate(-305.67 -528.803)" fill="#0c335b"/>
      <path id="Path_9" data-name="Path 9" d="M353.835,535.34a3.461,3.461,0,1,1,3.679-3.459A3.5,3.5,0,0,1,353.835,535.34Zm0-.962a2.488,2.488,0,1,0-2.467-2.5A2.357,2.357,0,0,0,353.835,534.378Z" transform="translate(-315.646 -528.431)" fill="#0c335b"/>
      <path id="Path_10" data-name="Path 10" d="M400.878,528.84V535.6H399.7l-3.555-5.043V535.6h-1.182V528.84h1.182l3.555,5.033V528.84Z" transform="translate(-351.929 -528.762)" fill="#0c335b"/>
      <path id="Path_11" data-name="Path 11" d="M435.882,535.34c-1.441,0-2.55-.739-2.55-1.934H434.6a1.134,1.134,0,0,0,1.285,1c.829,0,1.3-.418,1.3-.991,0-1.632-3.825-.573-3.825-3.061,0-1.186,1.005-1.924,2.477-1.924,1.379,0,2.353.68,2.457,1.836H436.98c-.041-.457-.467-.874-1.213-.894-.684-.02-1.213.291-1.213.943,0,1.525,3.815.573,3.815,3.041C438.369,534.368,437.488,535.34,435.882,535.34Z" transform="translate(-383.004 -528.431)" fill="#0c335b"/>
    </g>
  </g>
</svg>
