<svg width="114" height="42" viewBox="0 0 114 42" fill="none" xmlns="http://www.w3.org/2000/svg">
  <path d="M62.88 32V11.588L59.016 13.52V32H62.88ZM77.8321 24.664C77.8321 20.464 75.5641 16.992 71.6441 16.992C67.9201 16.992 65.0921 20.156 65.0921 24.664C65.0921 29.312 67.7801 32.308 72.0081 32.308C73.9681 32.308 76.0961 31.44 77.2721 29.928L74.5281 27.632C73.9681 28.276 73.0721 28.668 72.0081 28.668C70.6081 28.668 69.1241 27.912 68.9841 25.896H77.7761C77.8041 25.616 77.8321 25.224 77.8321 24.664ZM74.0801 22.984H69.0401C69.1801 21.5 70.0481 20.352 71.4481 20.352C73.1841 20.352 73.9681 21.668 74.0801 22.984ZM91.9123 29.508V17.3H88.0483V18.14C87.3483 17.496 86.2283 16.992 84.9403 16.992C81.3003 16.992 79.2283 20.072 79.2283 24.468C79.2283 29.956 81.8043 32.308 84.9403 32.308C86.3403 32.308 87.3203 31.72 88.0483 31.076C88.0483 33.344 87.2363 34.072 84.2123 34.492L85.5843 37.404C90.7363 36.844 91.9123 34.352 91.9123 29.508ZM88.0483 27.436C87.4883 28.164 86.8723 28.668 85.6683 28.668C84.1563 28.668 83.1483 27.408 83.1483 24.384C83.1483 21.92 83.9603 20.632 85.4443 20.632C86.5643 20.632 87.4603 21.08 88.0483 21.892V27.436ZM106.733 32V22.144C106.733 18.84 104.325 16.992 100.769 16.992C98.3887 16.992 96.9607 17.496 95.2527 18.476L96.7367 21.164C98.0807 20.436 99.0047 20.184 100.769 20.184C102.169 20.184 102.869 21.024 102.869 22.06V22.788C102.253 22.48 101.385 22.2 100.041 22.2C96.7087 22.2 94.0767 23.824 94.0767 27.072C94.0767 30.628 96.8207 32.308 99.5647 32.308C100.937 32.308 102.169 31.748 102.869 31.02V32H106.733ZM102.869 27.688C102.449 28.388 101.441 29.032 100.181 29.032C98.5287 29.032 97.9407 28.108 97.9407 27.072C97.9407 25.896 98.7247 25.224 100.181 25.224C101.553 25.224 102.197 25.42 102.869 25.84V27.688ZM113.409 32V11.588L109.545 13.52V32H113.409Z" fill="white"/>
  <path fill-rule="evenodd" clip-rule="evenodd" d="M41.4053 29.4287C41.3801 29.312 38.7793 17.784 28.2691 18.5352C21.9431 18.9861 18.274 22.4996 16.6499 24.5537C14.5725 27.1809 13.7269 29.9611 13.9649 31.3499C14.1826 32.619 14.6676 33.5132 15.0219 34.166C15.4816 35.0134 15.5727 35.2666 15.3372 35.6173C14.7789 36.4483 14.0505 37.3909 13.6663 37.8784C13.5142 38.0711 13.4624 38.327 13.5277 38.5624C13.5934 38.7986 13.7702 38.9925 14.0007 39.081C14.4313 39.2466 15.3533 39.5417 16.443 39.5417C17.6945 39.5417 19.1674 39.1522 20.3709 37.7303C21.5193 36.3741 20.2063 33.5048 19.6019 32.3558L22.6934 30.6482C22.7048 30.605 22.7189 30.5626 22.7317 30.5198C22.693 30.239 22.6781 29.9544 22.6908 29.6706C22.5628 29.6317 22.4202 29.6409 22.294 29.7107L18.6637 31.7158C18.5442 31.7818 18.4565 31.8925 18.4201 32.0234C18.3838 32.1542 18.402 32.294 18.4705 32.4114C19.1453 33.5688 20.3071 36.2325 19.59 37.0795C17.9832 38.9772 15.7929 38.6098 14.6713 38.2443C15.0857 37.7118 15.6968 36.9068 16.1858 36.1786C16.7869 35.2841 16.3658 34.508 15.9199 33.6861C15.5814 33.0622 15.1599 32.2856 14.9704 31.1798C14.8028 30.2033 15.4622 27.6956 17.4522 25.1784C18.9722 23.256 22.408 19.9678 28.3424 19.5448C37.9563 18.8628 40.3124 29.2001 40.4081 29.6407C40.4673 29.9135 40.7382 30.0873 41.0136 30.0291C41.2888 29.9703 41.4641 29.7017 41.4053 29.4287Z" fill="white"/>
  <path fill-rule="evenodd" clip-rule="evenodd" d="M41.4053 29.4287C41.3801 29.312 38.7793 17.784 28.2691 18.5352C21.9431 18.9861 18.274 22.4996 16.6499 24.5537C14.5725 27.1809 13.7269 29.9611 13.9649 31.3499C14.1826 32.619 14.6676 33.5132 15.0219 34.166C15.4816 35.0134 15.5727 35.2666 15.3372 35.6173C14.7789 36.4483 14.0505 37.3909 13.6663 37.8784C13.5142 38.0711 13.4624 38.327 13.5277 38.5624C13.5934 38.7986 13.7702 38.9925 14.0007 39.081C14.4313 39.2466 15.3533 39.5417 16.443 39.5417C17.6945 39.5417 19.1674 39.1522 20.3709 37.7303C21.5193 36.3741 20.2063 33.5048 19.6019 32.3558L22.6934 30.6482C22.7048 30.605 22.7189 30.5626 22.7317 30.5198C22.693 30.239 22.6781 29.9544 22.6908 29.6706C22.5628 29.6317 22.4202 29.6409 22.294 29.7107L18.6637 31.7158C18.5442 31.7818 18.4565 31.8925 18.4201 32.0234C18.3838 32.1542 18.402 32.294 18.4705 32.4114C19.1453 33.5688 20.3071 36.2325 19.59 37.0795C17.9832 38.9772 15.7929 38.6098 14.6713 38.2443C15.0857 37.7118 15.6968 36.9068 16.1858 36.1786C16.7869 35.2841 16.3658 34.508 15.9199 33.6861C15.5814 33.0622 15.1599 32.2856 14.9704 31.1798C14.8028 30.2033 15.4622 27.6956 17.4522 25.1784C18.9722 23.256 22.408 19.9678 28.3424 19.5448C37.9563 18.8628 40.3124 29.2001 40.4081 29.6407C40.4673 29.9135 40.7382 30.0873 41.0136 30.0291C41.2888 29.9703 41.4641 29.7017 41.4053 29.4287Z" stroke="white" stroke-width="0.5"/>
  <path fill-rule="evenodd" clip-rule="evenodd" d="M37.3757 39.75H33.378C32.8275 39.75 32.3152 39.4974 31.9726 39.0571L31.1102 37.9485C30.9358 37.724 30.9723 37.3977 31.1921 37.2194C31.4116 37.0414 31.7309 37.0783 31.9061 37.303L32.7685 38.4116C32.9171 38.6026 33.1391 38.7123 33.378 38.7123H37.3757C37.5136 38.7123 37.5722 38.6573 37.6042 38.616C37.6918 38.5026 37.7146 38.2983 37.6639 38.0833L36.8579 34.1249C36.8009 33.8442 36.9773 33.5695 37.2519 33.5112C37.526 33.452 37.7955 33.6329 37.8528 33.9136L38.6556 37.8565C38.7775 38.3739 38.6861 38.8904 38.4021 39.2585C38.1572 39.5754 37.7928 39.75 37.3757 39.75Z" fill="white"/>
  <path fill-rule="evenodd" clip-rule="evenodd" d="M37.3757 39.75H33.378C32.8275 39.75 32.3152 39.4974 31.9726 39.0571L31.1102 37.9485C30.9358 37.724 30.9723 37.3977 31.1921 37.2194C31.4116 37.0414 31.7309 37.0783 31.9061 37.303L32.7685 38.4116C32.9171 38.6026 33.1391 38.7123 33.378 38.7123H37.3757C37.5136 38.7123 37.5722 38.6573 37.6042 38.616C37.6918 38.5026 37.7146 38.2983 37.6639 38.0833L36.8579 34.1249C36.8009 33.8442 36.9773 33.5695 37.2519 33.5112C37.526 33.452 37.7955 33.6329 37.8528 33.9136L38.6556 37.8565C38.7775 38.3739 38.6861 38.8904 38.4021 39.2585C38.1572 39.5754 37.7928 39.75 37.3757 39.75Z" stroke="white" stroke-width="0.5"/>
  <path fill-rule="evenodd" clip-rule="evenodd" d="M19.9585 35.1356C20.4957 34.5022 21.0105 33.8253 21.3749 33.0511C21.7462 32.2853 22.0577 31.4729 22.2449 30.6224C22.4429 29.7753 22.5648 28.9032 22.6097 28.0232C22.6512 27.1436 22.632 26.255 22.5138 25.375C22.7144 26.2402 22.8187 27.1301 22.8608 28.0239C22.8995 28.9186 22.8604 29.8203 22.7383 30.7173C22.627 31.617 22.384 32.5021 22.0628 33.3623C21.7488 34.2305 21.2631 35.0276 20.7266 35.7917L19.9585 35.1356Z" fill="white"/>
  <path fill-rule="evenodd" clip-rule="evenodd" d="M19.9585 35.1356C20.4957 34.5022 21.0105 33.8253 21.3749 33.0511C21.7462 32.2853 22.0577 31.473 22.2449 30.6224C22.4429 29.7753 22.5648 28.9032 22.6097 28.0232C22.6512 27.1436 22.632 26.255 22.5138 25.375C22.7144 26.2402 22.8187 27.1301 22.8608 28.0239C22.8995 28.9186 22.8604 29.8203 22.7383 30.7173C22.627 31.617 22.384 32.5021 22.0628 33.3623C21.7488 34.2305 21.2631 35.0276 20.7266 35.7917L19.9585 35.1356Z" stroke="white" stroke-width="0.5"/>
  <path fill-rule="evenodd" clip-rule="evenodd" d="M28.9518 41H12.3432C12.0901 41 11.8754 40.815 11.8388 40.5653C11.8025 40.3158 11.9553 40.0774 12.1976 40.0053C14.0166 39.4654 14.8617 38.6951 14.8702 38.6873C15.0754 38.497 15.3976 38.5069 15.5895 38.7106C15.7813 38.9144 15.773 39.2336 15.5698 39.4258C15.5496 39.4448 15.2986 39.6785 14.7943 39.9842H28.7542C29.6668 39.1336 34.8127 34.0407 34.555 27.613C34.2808 20.7808 30.939 19.7144 30.9054 19.7045C30.6374 19.6255 30.4812 19.3449 30.558 19.0771C30.635 18.809 30.9109 18.6527 31.1808 18.7267C31.3475 18.7723 35.2668 19.9364 35.573 27.5722C35.8746 35.0829 29.5551 40.6427 29.2859 40.8755C29.1932 40.9559 29.0745 41 28.9518 41Z" fill="white"/>
  <path fill-rule="evenodd" clip-rule="evenodd" d="M28.9518 41H12.3432C12.0901 41 11.8754 40.815 11.8388 40.5653C11.8025 40.3158 11.9553 40.0774 12.1976 40.0053C14.0166 39.4654 14.8617 38.6951 14.8702 38.6873C15.0754 38.497 15.3976 38.5069 15.5895 38.7106C15.7813 38.9144 15.773 39.2336 15.5698 39.4258C15.5496 39.4448 15.2986 39.6785 14.7943 39.9842H28.7542C29.6668 39.1336 34.8127 34.0407 34.555 27.613C34.2808 20.7808 30.939 19.7144 30.9054 19.7045C30.6374 19.6255 30.4812 19.3449 30.558 19.0771C30.635 18.809 30.9109 18.6527 31.1808 18.7267C31.3475 18.7723 35.2668 19.9364 35.573 27.5722C35.8746 35.0829 29.5551 40.6427 29.2859 40.8755C29.1932 40.9559 29.0745 41 28.9518 41Z" stroke="white" stroke-width="0.5"/>
  <path fill-rule="evenodd" clip-rule="evenodd" d="M33.3562 3.08541C33.2979 3.18309 33.2305 3.28069 33.1529 3.37707C32.4483 4.25093 31.1825 4.70299 29.3903 4.72043C25.3574 4.75998 24.3922 6.76182 24.002 8.50121C23.9028 8.94318 23.8697 9.86717 23.8774 11.0225C24.6975 10.2119 26.0219 9.69183 27.7244 9.02343C28.6513 8.65935 29.702 8.24684 30.8826 7.71123C32.2701 7.08165 33.1235 6.23169 33.4187 5.18468C33.6298 4.43555 33.5318 3.68762 33.3562 3.08541ZM23.8075 20.5833C23.5476 20.5833 23.3279 20.3798 23.3078 20.1121C23.2907 19.8843 23.057 16.7383 22.9404 13.6978C22.9399 13.6915 22.9396 13.6853 22.9394 13.679C22.9392 13.6709 22.9389 13.6628 22.9387 13.6547C22.8514 11.358 22.8317 9.12998 23.0237 8.27453C23.4592 6.33324 24.5921 3.74736 29.3805 3.7003C30.8407 3.68609 31.8767 3.35067 32.3766 2.73054C32.8068 2.19686 32.712 1.61104 32.7108 1.60539C32.6661 1.36757 32.7923 1.1304 33.0127 1.03837C33.2332 0.946181 33.487 1.02465 33.6197 1.22509C33.6759 1.31001 34.9869 3.32508 34.3831 5.46577C34.0024 6.8159 32.9623 7.88455 31.2917 8.64264C30.0873 9.18899 29.0241 9.60667 28.086 9.97478C25.001 11.1861 23.9104 11.7106 23.9403 13.5702C24.0327 16.0009 24.2036 18.6398 24.3082 20.0344C24.3293 20.3153 24.1223 20.5604 23.8462 20.5818C23.8332 20.5828 23.8203 20.5833 23.8075 20.5833Z" fill="white"/>
  <path d="M33.3562 3.08541L33.5962 3.01541L33.4355 2.46453L33.1415 2.95731L33.3562 3.08541ZM33.1529 3.37707L33.3475 3.53398L33.3475 3.53392L33.1529 3.37707ZM29.3903 4.72043L29.3879 4.47044H29.3879L29.3903 4.72043ZM24.002 8.50121L24.246 8.55599L24.246 8.55593L24.002 8.50121ZM23.8774 11.0225L23.6274 11.0242L23.6313 11.6173L24.0531 11.2003L23.8774 11.0225ZM27.7244 9.02343L27.8158 9.25613L27.8158 9.25612L27.7244 9.02343ZM30.8826 7.71123L30.9859 7.9389L30.9859 7.93889L30.8826 7.71123ZM33.4187 5.18468L33.6593 5.25252L33.6593 5.25249L33.4187 5.18468ZM23.3078 20.1121L23.5571 20.0934L23.5571 20.0934L23.3078 20.1121ZM22.9404 13.6978L23.1904 13.6882L23.1896 13.6787L22.9404 13.6978ZM22.9394 13.679L22.6895 13.6863L22.6896 13.6885L22.9394 13.679ZM22.9387 13.6547L23.1886 13.6474L23.1885 13.6452L22.9387 13.6547ZM23.0237 8.27453L23.2676 8.32928L23.2676 8.32927L23.0237 8.27453ZM29.3805 3.7003L29.3781 3.45031L29.3781 3.45031L29.3805 3.7003ZM32.3766 2.73054L32.5713 2.88746L32.5713 2.88742L32.3766 2.73054ZM32.7108 1.60539L32.465 1.6515L32.4661 1.65695L32.7108 1.60539ZM33.0127 1.03837L33.109 1.26907L33.1092 1.26902L33.0127 1.03837ZM33.6197 1.22509L33.8283 1.08723L33.8282 1.08704L33.6197 1.22509ZM34.3831 5.46577L34.1425 5.3979L34.1425 5.39791L34.3831 5.46577ZM31.2917 8.64264L31.395 8.87031L31.395 8.8703L31.2917 8.64264ZM28.086 9.97478L27.9947 9.74205L27.9946 9.74207L28.086 9.97478ZM23.9403 13.5702L23.6903 13.5742L23.6905 13.5797L23.9403 13.5702ZM24.3082 20.0344L24.0589 20.0531L24.0589 20.0531L24.3082 20.0344ZM23.8462 20.5818L23.8269 20.3325L23.8262 20.3326L23.8462 20.5818ZM33.1415 2.95731C33.0892 3.04505 33.0284 3.13303 32.9582 3.22023L33.3475 3.53392C33.4326 3.42834 33.5067 3.32113 33.5709 3.21351L33.1415 2.95731ZM32.9582 3.22016C32.3227 4.00841 31.1496 4.4533 29.3879 4.47044L29.3927 4.97042C31.2153 4.95268 32.5739 4.49345 33.3475 3.53398L32.9582 3.22016ZM29.3879 4.47044C27.3304 4.49062 26.0146 5.01241 25.1619 5.78849C24.312 6.56196 23.9577 7.55649 23.7581 8.44649L24.246 8.55593C24.4365 7.70654 24.7599 6.83046 25.4984 6.15827C26.2341 5.4887 27.4173 4.98979 29.3928 4.97042L29.3879 4.47044ZM23.7581 8.44643C23.6514 8.92161 23.6198 9.87597 23.6274 11.0242L24.1274 11.0209C24.1197 9.85837 24.1542 8.96475 24.246 8.55599L23.7581 8.44643ZM24.0531 11.2003C24.4355 10.8224 24.9441 10.5039 25.5795 10.1944C26.2152 9.88471 26.9619 9.59138 27.8158 9.25613L27.633 8.79072C26.7844 9.12388 26.0177 9.42477 25.3605 9.74488C24.703 10.0652 24.1394 10.412 23.7016 10.8447L24.0531 11.2003ZM27.8158 9.25612C28.7425 8.89213 29.7987 8.4775 30.9859 7.9389L30.7794 7.48356C29.6053 8.01619 28.5601 8.42658 27.633 8.79073L27.8158 9.25612ZM30.9859 7.93889C32.4124 7.29161 33.337 6.39554 33.6593 5.25252L33.1781 5.11684C32.9099 6.06784 32.1278 6.87169 30.7793 7.48357L30.9859 7.93889ZM33.6593 5.25249C33.8876 4.44256 33.7795 3.64382 33.5962 3.01541L33.1162 3.15541C33.2842 3.73143 33.3721 4.42853 33.1781 5.11687L33.6593 5.25249ZM23.8075 20.3333C23.6809 20.3333 23.5676 20.2331 23.5571 20.0934L23.0585 20.1308C23.0882 20.5265 23.4143 20.8333 23.8075 20.8333V20.3333ZM23.5571 20.0934C23.54 19.8662 23.3066 16.724 23.1902 13.6882L22.6905 13.7073C22.8074 16.7526 23.0413 19.9023 23.0585 20.1309L23.5571 20.0934ZM23.1896 13.6787C23.1896 13.6787 23.1896 13.6785 23.1896 13.6782C23.1896 13.6778 23.1896 13.6773 23.1895 13.6765C23.1894 13.6748 23.1894 13.6729 23.1892 13.6696L22.6896 13.6885C22.6898 13.6941 22.6902 13.7051 22.6911 13.7169L23.1896 13.6787ZM23.1893 13.6717C23.1892 13.6676 23.1891 13.6636 23.1889 13.6595C23.1888 13.6554 23.1887 13.6514 23.1886 13.6474L22.6888 13.662C22.6889 13.6661 22.689 13.6701 22.6892 13.6742C22.6893 13.6782 22.6894 13.6823 22.6895 13.6863L23.1893 13.6717ZM23.1885 13.6452C23.145 12.4986 23.1183 11.3718 23.1264 10.4263C23.1346 9.47247 23.1783 8.72729 23.2676 8.32928L22.7797 8.21979C22.6771 8.67723 22.6346 9.47378 22.6265 10.422C22.6183 11.3786 22.6452 12.5141 22.6889 13.6641L23.1885 13.6452ZM23.2676 8.32927C23.4811 7.37791 23.8586 6.30287 24.7425 5.45779C25.6219 4.61717 27.0353 3.97336 29.383 3.95029L29.3781 3.45031C26.9374 3.4743 25.3902 4.14696 24.397 5.09637C23.4086 6.04132 23.0018 7.22987 22.7797 8.2198L23.2676 8.32927ZM29.383 3.95029C30.8598 3.93592 31.9972 3.59948 32.5713 2.88746L32.182 2.57363C31.7561 3.10187 30.8216 3.43626 29.3781 3.45031L29.383 3.95029ZM32.5713 2.88742C33.0685 2.27046 32.964 1.59468 32.9554 1.55383L32.4661 1.65695C32.4599 1.6274 32.545 2.12326 32.182 2.57366L32.5713 2.88742ZM32.9565 1.55928C32.9332 1.43502 32.9997 1.3147 33.109 1.26907L32.9164 0.807671C32.5849 0.946092 32.3991 1.30012 32.4651 1.65149L32.9565 1.55928ZM33.1092 1.26902C33.2174 1.22376 33.3439 1.26128 33.4113 1.36314L33.8282 1.08704C33.6301 0.788012 33.249 0.668598 32.9163 0.807718L33.1092 1.26902ZM33.4112 1.36295C33.4324 1.39498 33.7617 1.89957 34.0116 2.6532C34.2619 3.4081 34.426 4.3928 34.1425 5.3979L34.6237 5.53363C34.944 4.39805 34.7544 3.30488 34.4862 2.49583C34.2175 1.68553 33.8633 1.14013 33.8283 1.08723L33.4112 1.36295ZM34.1425 5.39791C33.7875 6.65671 32.814 7.6773 31.1884 8.41499L31.395 8.8703C33.1106 8.0918 34.2172 6.97509 34.6237 5.53362L34.1425 5.39791ZM31.1884 8.41497C29.9906 8.95835 28.9329 9.37392 27.9947 9.74205L28.1773 10.2075C29.1154 9.83941 30.184 9.41964 31.395 8.87031L31.1884 8.41497ZM27.9946 9.74207C26.4641 10.343 25.3803 10.7902 24.6905 11.3329C24.338 11.6103 24.0791 11.9188 23.9131 12.2929C23.748 12.6651 23.6825 13.0851 23.6904 13.5742L24.1903 13.5662C24.1832 13.1255 24.2428 12.7826 24.3702 12.4956C24.4967 12.2105 24.6976 11.9635 24.9996 11.7259C25.6189 11.2387 26.6228 10.8179 28.1774 10.2075L27.9946 9.74207ZM23.6905 13.5797C23.783 16.0143 23.9542 18.6564 24.0589 20.0531L24.5575 20.0157C24.4531 18.6232 24.2823 15.9875 24.1902 13.5607L23.6905 13.5797ZM24.0589 20.0531C24.07 20.2004 23.9618 20.3221 23.8269 20.3325L23.8656 20.8311C24.2829 20.7987 24.5887 20.4302 24.5575 20.0157L24.0589 20.0531ZM23.8262 20.3326C23.8202 20.3331 23.814 20.3333 23.8075 20.3333V20.8333C23.8266 20.8333 23.8462 20.8326 23.8663 20.831L23.8262 20.3326Z" fill="white"/>
  <path fill-rule="evenodd" clip-rule="evenodd" d="M31.4303 8.67044C31.6971 9.68666 31.9201 10.6929 32.1131 11.7148C32.2082 12.2249 32.2962 12.7364 32.369 13.2508C32.4011 13.5187 32.4482 13.7386 32.4585 14.0606C32.4548 14.3637 32.3734 14.6587 32.2438 14.9158C31.98 15.4333 31.5626 15.8042 31.1348 16.1127C30.7028 16.4226 30.2391 16.668 29.7672 16.8859C28.8198 17.3145 27.8347 17.6354 26.8335 17.875C27.8117 17.5578 28.7647 17.1605 29.6568 16.6685C30.1004 16.4197 30.5299 16.1457 30.9103 15.824C31.2886 15.5064 31.6304 15.1328 31.8004 14.7124C31.8849 14.5034 31.9234 14.2875 31.9098 14.0759C31.8912 13.8839 31.8167 13.6021 31.7652 13.3635C31.6507 12.8676 31.5211 12.3746 31.3849 11.8837C31.1108 10.9045 30.8019 9.92438 30.4631 8.9768L30.4606 8.96975C30.3663 8.70589 30.5039 8.41556 30.7681 8.32132C31.0323 8.22717 31.323 8.36463 31.4173 8.62857C31.4222 8.64213 31.4267 8.65672 31.4303 8.67044Z" fill="white"/>
  <path fill-rule="evenodd" clip-rule="evenodd" d="M31.4303 8.6622C31.6971 9.65633 31.9201 10.6407 32.1131 11.6404C32.2082 12.1394 32.2962 12.6398 32.369 13.143C32.4011 13.405 32.4482 13.6202 32.4585 13.9352C32.4548 14.2317 32.3734 14.5203 32.2438 14.7718C31.98 15.278 31.5626 15.6409 31.1348 15.9427C30.7028 16.2458 30.2391 16.4859 29.7672 16.6991C28.8198 17.1183 27.8347 17.4323 26.8335 17.6667C27.8117 17.3564 28.7647 16.9677 29.6568 16.4864C30.1004 16.243 30.5299 15.975 30.9103 15.6603C31.2886 15.3495 31.6304 14.9841 31.8004 14.5729C31.8849 14.3684 31.9234 14.1571 31.9098 13.9501C31.8912 13.7623 31.8167 13.4866 31.7652 13.2532C31.6507 12.7681 31.5211 12.2858 31.3849 11.8056C31.1108 10.8477 30.8019 9.88888 30.4631 8.96191L30.4606 8.95501C30.3663 8.69688 30.5039 8.41287 30.7681 8.32068C31.0323 8.22857 31.323 8.36304 31.4173 8.62125C31.4222 8.63451 31.4267 8.64879 31.4303 8.6622Z" stroke="white" stroke-width="0.5"/>
  <path fill-rule="evenodd" clip-rule="evenodd" d="M29.3585 19.125L28.7085 16.9781L29.5168 16.625L30.1668 18.7719L29.3585 19.125Z" fill="white"/>
  <path fill-rule="evenodd" clip-rule="evenodd" d="M29.3585 19.125L28.7085 16.9781L29.5168 16.625L30.1668 18.7719L29.3585 19.125Z" stroke="white" stroke-width="0.5"/>
  <path fill-rule="evenodd" clip-rule="evenodd" d="M11.4571 41C10.0487 41 7.58065 40.7554 6.30113 39.1778C4.77203 37.2928 1.43285 36.5249 1.39917 36.5173C1.15545 36.4627 0.987251 36.2436 1.00076 35.9985C1.0141 35.7534 1.20566 35.5533 1.45393 35.5246C1.52798 35.5159 8.88255 34.6065 11.7791 29.277C12.0831 28.7178 12.3724 28.1701 12.6533 27.6378C15.2192 22.7794 17.2462 18.9438 23.6658 19.619C23.9483 19.6488 24.1524 19.8977 24.122 20.1745C24.0917 20.4514 23.837 20.6527 23.5559 20.6222C17.8324 20.0181 16.137 23.2341 13.5664 28.1022C13.2834 28.6377 12.9924 29.1891 12.6864 29.7519C10.4795 33.8124 6.07597 35.4895 3.52107 36.1433C4.70042 36.6168 6.1658 37.3908 7.10543 38.5496C8.56528 40.3495 12.3495 39.9524 12.3874 39.9486C12.6671 39.9156 12.9239 40.1162 12.956 40.393C12.9882 40.6697 12.7858 40.9194 12.5039 40.9513C12.4512 40.9572 12.047 41 11.4571 41Z" fill="white"/>
  <path fill-rule="evenodd" clip-rule="evenodd" d="M11.4571 41C10.0487 41 7.58065 40.7554 6.30113 39.1778C4.77203 37.2928 1.43285 36.5249 1.39917 36.5173C1.15545 36.4627 0.987251 36.2436 1.00076 35.9985C1.0141 35.7534 1.20566 35.5533 1.45393 35.5246C1.52798 35.5159 8.88255 34.6065 11.7791 29.277C12.0831 28.7178 12.3724 28.1701 12.6533 27.6378C15.2192 22.7794 17.2462 18.9438 23.6658 19.619C23.9483 19.6488 24.1524 19.8977 24.122 20.1745C24.0917 20.4514 23.837 20.6527 23.5559 20.6222C17.8324 20.0181 16.137 23.2341 13.5664 28.1022C13.2834 28.6377 12.9924 29.1891 12.6864 29.7519C10.4795 33.8124 6.07597 35.4895 3.52107 36.1433C4.70042 36.6168 6.1658 37.3908 7.10543 38.5496C8.56528 40.3495 12.3495 39.9524 12.3874 39.9486C12.6671 39.9156 12.9239 40.1162 12.956 40.393C12.9882 40.6697 12.7858 40.9194 12.5039 40.9513C12.4512 40.9572 12.047 41 11.4571 41Z" stroke="white" stroke-width="0.5"/>
  <path fill-rule="evenodd" clip-rule="evenodd" d="M37.1569 34.75L36.4165 34.0291C38.1371 32.3745 39.1156 31.137 40.2951 29.125L41.2082 29.6266C39.9759 31.729 38.9536 33.0218 37.1569 34.75Z" fill="white"/>
  <path fill-rule="evenodd" clip-rule="evenodd" d="M37.1569 34.75L36.4165 34.0291C38.1371 32.3745 39.1156 31.137 40.2951 29.125L41.2082 29.6266C39.9759 31.729 38.9536 33.0218 37.1569 34.75Z" stroke="white" stroke-width="0.5"/>
  <path fill-rule="evenodd" clip-rule="evenodd" d="M37.2502 34.8571C36.5072 35.2899 35.741 35.6762 34.9585 36C35.5154 35.4015 36.0109 34.7725 36.4578 34.125L37.2502 34.8571Z" fill="white"/>
  <path fill-rule="evenodd" clip-rule="evenodd" d="M37.2502 34.8571C36.5072 35.2899 35.741 35.6762 34.9585 36C35.5154 35.4015 36.0109 34.7725 36.4578 34.125L37.2502 34.8571Z" stroke="white" stroke-width="0.5"/>
</svg>
