<?xml version="1.0" encoding="UTF-8"?>
<svg width="171px" height="34px" viewBox="0 0 171 34" version="1.1" xmlns="http://www.w3.org/2000/svg" xmlns:xlink="http://www.w3.org/1999/xlink">
    <title>logo.7026be5a</title>
    <g id="Shop" stroke="none" stroke-width="1" fill="none" fill-rule="evenodd">
        <g transform="translate(-59.000000, -82.000000)" fill-rule="nonzero" id="Group-11">
            <g transform="translate(60.000000, 82.000000)">
                <g id="logo.7026be5a" transform="translate(0.000000, 1.000000)">
                    <path d="M10.0925217,5.05808696 C7.75788785,5.00140424 5.57139238,6.19828427 4.36104348,8.19547826 L4.36104348,5.41913043 L0.347826087,5.41913043 L0.347826087,31.9408696 L4.5426087,31.9408696 L4.5426087,21.5867826 C4.5426087,21.5867826 5.99165217,24.3937391 10.2469565,24.3937391 C15.7391304,24.3937391 18.9370435,19.8685217 18.9370435,14.9794783 C18.9356522,9.78852174 15.7057391,5.05808696 10.0925217,5.05808696 Z" id="Path_13600" stroke="#0685F7" fill="#0685F7"></path>
                    <path d="M26.5662609,8.10156522 L26.5662609,5.41634783 L22.6441739,5.41634783 L22.6441739,23.9422609 L26.7401739,23.9422609 L26.7401739,13.8636522 C26.7401739,11.7815652 27.7342609,9.06365217 30.5106087,9.06365217 C31.1503252,9.09892235 31.7809013,9.23169991 32.3805217,9.4573913 L33.7078261,5.38365217 C32.9885346,5.09748016 32.2203499,4.95428733 31.4462609,4.96208696 C29.325966,4.89542145 27.3845539,6.14440113 26.5662609,8.10156522 Z" id="Path_13601" stroke="#0685F7" fill="#0685F7"></path>
                    <path d="M47.2041739,16.1572174 C47.2041739,19.7377391 45.9067826,20.4403478 43.6236522,20.4403478 C41.2410435,20.4403478 39.7926957,19.7446957 39.7926957,16.0667826 L39.7926957,5.41565217 L35.6883478,5.41565217 L35.6883478,17.4852174 C35.6883478,21.8587826 38.9161739,24.3930435 43.7147826,24.3930435 C48.1495652,24.3930435 51.3168696,21.5561739 51.3168696,17.4852174 L51.3168696,5.41565217 L47.2048696,5.41565217 L47.2041739,16.1572174 Z" id="Path_13602" stroke="#0685F7" fill="#0685F7"></path>
                    <path d="M69.6194783,7.67165217 C68.2467522,5.92313113 66.1077322,4.95370513 63.888,5.07408696 C58.0653913,5.07408696 54.9586087,9.51095652 54.9586087,14.669913 C54.9586087,19.6473043 57.8233043,24.3847489 63.7363478,24.3847489 C66.0764561,24.3934363 68.290576,23.3254973 69.7405217,21.4886957 L69.7405217,23.9318261 L73.6626087,23.9318261 L73.6626087,0.349217391 L69.6194783,0.349217391 L69.6194783,7.67165217 Z M64.3394783,20.7958261 C61.2932174,20.7958261 59.3307826,18.3805217 59.3307826,14.7916522 C59.3307826,11.5332174 61.0796522,8.75686957 64.5481739,8.75686957 C67.5944348,8.75686957 69.5255652,11.2911304 69.5255652,14.5794783 C69.5255652,17.8678261 67.8671304,20.8041739 64.3366957,20.8041739 L64.3394783,20.7958261 Z" id="Path_13603" stroke="#46A5F9" fill="#46A5F9"></path>
                    <path d="M87.0594783,5.05530153 C84.4588328,5.05332282 81.9668089,6.09801988 80.1450315,7.95395306 C78.3232542,9.80988623 77.3250216,12.3208835 77.3753043,14.9210435 C77.3753043,20.6525217 81.5067826,24.3930435 87.0017391,24.3930435 C91.5269565,24.3930435 94.6942609,21.7683478 95.7495652,19.2646957 L92.1273043,17.5874783 C91.1438917,19.6018174 89.0887497,20.8701027 86.8473043,20.845913 C85.493245,20.885266 84.1820499,20.3688601 83.2184822,19.4167243 C82.2549145,18.4645886 81.7228969,17.1596499 81.746087,15.8052174 L96.146087,15.8052174 C96.2316522,9.45947826 93.2431304,5.05530153 87.0594783,5.05530153 Z M81.9311304,12.5683478 C81.9311304,11.3314783 83.5617391,8.4946087 86.9398261,8.4946087 C91.0441739,8.4946087 91.9172174,11.661913 91.9172174,12.5683478 L81.9311304,12.5683478 Z" id="Path_13604" stroke="#46A5F9" fill="#46A5F9"></path>
                    <path d="M109.504696,5.05530435 C105.069913,5.05530435 103.800348,8.01043478 103.800348,8.01043478 L103.800348,5.41565217 L99.8205217,5.41565217 L99.8205217,23.9415652 L103.92487,23.9415652 L103.92487,13.8636522 C103.92487,12.0549565 104.768,8.85495652 108.208,8.85495652 C110.620522,8.85495652 111.769043,10.0006957 111.769043,13.4107826 L111.769043,23.9408696 L115.873391,23.9408696 L115.873391,11.5721739 C115.869217,7.52904348 113.426783,5.05530435 109.504696,5.05530435 Z" id="Path_13605" stroke="#46A5F9" fill="#46A5F9"></path>
                    <polygon id="Path_13606" stroke="#46A5F9" fill="#46A5F9" points="124.772174 0.347826087 120.546783 0.347826087 120.546783 5.41565217 118.464696 5.41565217 118.464696 9.30782609 120.546783 9.30782609 120.546783 23.9415652 124.799304 23.9415652 124.799304 9.30782609 127.848348 9.30782609 127.848348 5.41565217 124.771478 5.41565217"></polygon>
                    <path d="M143.840696,7.82886957 C142.843826,6.14052174 140.461217,5.05530435 137.866435,5.05530435 C132.162087,5.05530435 129.052522,9.58052174 129.052522,14.770087 C129.052522,20.2594783 132.461217,24.3937391 137.80313,24.3937391 C142.116174,24.3937391 143.837913,21.4386087 143.837913,21.4386087 L143.837913,23.9429565 L147.693913,23.9429565 L147.693913,5.41634783 L143.837913,5.41634783 L143.840696,7.82886957 Z M138.409043,20.8048696 C135.241739,20.8048696 133.45113,18.3005217 133.45113,14.7095652 C133.45113,11.6027826 135.142261,8.61426087 138.582261,8.61426087 C141.598609,8.61426087 143.65012,11.1485217 143.65012,14.4674783 C143.658435,17.6674783 142.088348,20.8055652 138.408348,20.8055652 L138.409043,20.8048696 Z" id="Path_13607" stroke="#46A5F9" fill="#46A5F9"></path>
                    <rect id="Rectangle_137772" stroke="#46A5F9" fill="#46A5F9" x="152.497391" y="0.347826087" width="4.28313043" height="23.5937391"></rect>
                    <path d="M15.1088696,12.5885217 C15.0782609,12.7123478 15.0594783,12.8417391 15.0233043,12.9606957 C14.9871304,13.0796522 14.9293913,13.2166957 14.8883478,13.346087 C14.8027826,13.602087 14.7311304,13.8636522 14.6706087,14.128 C14.548923,14.6577695 14.4560332,15.1937436 14.3923478,15.7335652 C14.2832759,16.8196458 14.1104561,17.8983758 13.8747826,18.9641739 L13.8553043,19.0413913 C13.7949144,19.3206564 13.6807966,19.5855138 13.5193043,19.8212174 C13.3526262,20.0585499 13.076533,20.19463 12.7867826,20.1822609 C12.5390944,20.1421628 12.3210375,19.9964531 12.1892174,19.7829565 C12.0589376,19.5707626 11.9604978,19.3406011 11.8970435,19.0998261 L11.3683478,17.4198261 C11.2981512,17.1394222 11.1805132,16.8730897 11.0205217,16.6323478 C10.854038,16.3903197 10.5760645,16.2493681 10.2824348,16.258087 C9.92038206,16.3467717 9.6213324,16.6009639 9.47547826,16.944 C9.22206516,17.3865072 9.02327923,17.8581275 8.88347826,18.3485217 C8.79072095,18.8233673 8.6282689,19.2818899 8.4013913,19.7092174 C8.2567186,20.0206605 7.89373444,20.1645709 7.57495652,20.0368696 C7.20212196,19.7946543 6.93223441,19.4229084 6.8173913,18.9933913 C6.68948299,18.5543618 6.60925182,18.1028282 6.57808696,17.6466087 C6.44821213,16.225166 6.19000021,14.8183883 5.8066087,13.4434783 C5.6115681,12.9581789 5.53041575,12.4346153 5.5693913,11.9130435 C5.66697884,11.4858531 5.87494682,11.0917454 6.17252174,10.770087 C6.40515641,10.4452681 6.73059173,10.1984029 7.10608696,10.061913 C7.61262251,9.98710006 8.1299758,10.0527919 8.60173913,10.2518261 C9.60119148,10.5584544 10.6681995,10.5681215 11.6730435,10.2796522 C12.1508557,10.062907 12.6665896,9.94212784 13.1909565,9.92417391 C14.1050435,10.0097391 14.7777391,10.9766957 14.9996522,11.794087 C15.0724538,12.0528887 15.105987,12.3211541 15.0991304,12.589913" id="Path_13608" fill="#FFFFFF"></path>
                    <g id="Group_76217" transform="translate(160.090435, 16.404174)" fill="#46A5F9">
                        <path d="M2.33182609,6.29217391 L2.33182609,1.79547826 L4.24347826,1.79547826 C4.59812181,1.78053491 4.95289409,1.82185848 5.2946087,1.91791304 C5.51105802,2.00058321 5.69469509,2.15149771 5.81773913,2.34782609 C5.94756193,2.56133539 6.01525791,2.80682365 6.01321739,3.05669565 C6.01761825,3.28763783 5.96021746,3.51555981 5.84695652,3.71686957 C5.80709074,3.77857043 5.7629232,3.83738299 5.71478261,3.89286957 C5.51165093,4.10406767 5.24611421,4.24451684 4.95721739,4.29356522 C5.08158567,4.41907918 5.19908986,4.55121334 5.30921739,4.6893913 C5.50188872,4.91736735 5.67524131,5.16099173 5.82747826,5.41773913 L6.37495652,6.29286957 L5.28973913,6.29286957 L4.65878261,5.31478261 C4.51005377,5.0850172 4.34743226,4.86454889 4.17182609,4.6546087 C4.09803616,4.57006575 4.00360798,4.50607508 3.89773913,4.46886957 C3.74982722,4.42730253 3.59630401,4.40922717 3.44278261,4.41530435 L3.25704348,4.41530435 L3.25704348,6.29356522 L2.33182609,6.29217391 Z M3.24104348,3.70086957 L3.91582609,3.70086957 C4.18781717,3.71581421 4.46060529,3.69617907 4.72765217,3.64243478 C4.83325494,3.6101569 4.92475139,3.54294503 4.98713043,3.45182609 C5.04955289,3.35068326 5.08031895,3.23319084 5.07547826,3.11443478 C5.0811536,2.98213681 5.03946915,2.85215041 4.95791304,2.74782609 C4.86805421,2.65076077 4.74687714,2.58844817 4.61565217,2.57182609 L3.24173913,2.57182609 L3.24104348,3.70086957 Z" id="Path_13609"></path>
                        <path d="M4.02365217,8.04243952 C3.48602118,8.04326431 2.95379978,7.93511616 2.45913043,7.72452174 C2.21855729,7.62505061 1.9891199,7.50053886 1.7746087,7.35304348 C1.34472332,7.0665562 0.975878586,6.69771146 0.689391304,6.26782609 C0.544804823,6.05325605 0.420445391,5.82572952 0.317913043,5.58817391 C-0.104645531,4.58747463 -0.104645531,3.45843841 0.317913043,2.45773913 C0.420452593,2.22018703 0.544811669,1.99266116 0.689391304,1.77808696 C0.975878586,1.34820159 1.34472332,0.979356847 1.7746087,0.692869565 C1.98910911,0.545356579 2.21854841,0.420843793 2.45913043,0.321391304 C3.45949046,-0.102839499 4.58920519,-0.102839499 5.58956522,0.321391304 C5.83013172,0.420876391 6.05956767,0.545387367 6.27408696,0.692869565 C6.48621575,0.836028212 6.68421297,0.999084745 6.8653913,1.17982609 C7.23341334,1.54431434 7.52584631,1.97788109 7.72591304,2.45565217 C8.14855094,3.45633539 8.14855094,4.58540374 7.72591304,5.58608696 C7.52593046,6.06547207 7.23299114,6.50050706 6.864,6.86608696 C6.68283873,7.04684712 6.48483964,7.20990519 6.27269565,7.35304348 C6.05818175,7.50053446 5.82874484,7.62504596 5.58817391,7.72452174 C5.09337873,7.9347112 4.56124097,8.04284235 4.02365217,8.04243952 L4.02365217,8.04243952 Z M4.02365217,0.34226087 C2.53422553,0.34226087 1.19154963,1.23973217 0.622026704,2.61597175 C0.0525037799,3.99221132 0.368361537,5.57602471 1.422242,6.62851115 C2.47612246,7.68099759 4.06035254,7.99475869 5.43583707,7.42341464 C6.81132161,6.85207059 7.70701362,5.50820795 7.70504672,4.01878261 C7.70235661,1.98750828 6.05492828,0.34226087 4.02365217,0.34226087 Z" id="Path_13610"></path>
                    </g>
                </g>
            </g>
        </g>
    </g>
</svg>