
<svg width="90px" height="38px" viewBox="0 0 90 38" version="1.1" xmlns="http://www.w3.org/2000/svg" xmlns:xlink="http://www.w3.org/1999/xlink">
    <g id="Product" stroke="none" stroke-width="1" fill="none" fill-rule="evenodd">
        <g id="Product-+clean" transform="translate(-60.000000, -100.000000)" fill="#222222" fill-rule="nonzero">
            <g id="Group-16" transform="translate(60.000000, 100.000000)">
                <g id="logo-text-black-copy" transform="translate(-0.000000, 0.000000)">
                    <path d="M28.0311844,6.92366072 C28.1637553,9.29776726 27.3294801,11.5041518 25.5281394,13.5428692 C24.2700323,14.9489114 21.7073962,16.320933 20.0189822,17.1291988 C19.1176534,17.5607129 18.6613371,18.607343 19.0087872,19.5442289 C20.4571907,23.4493654 21.6724976,26.5680751 23.4394884,29.3491021 C24.0554824,30.3076076 25.0181582,31.1717332 25.8578109,31.8140658 C26.3040307,32.1553701 26.0758725,33.1088275 25.5178234,33.1725888 C23.4814107,33.4053218 20.7000545,33.6521708 20.187659,32.8974602 C17.4705032,28.9461215 15.7165719,22.2681889 13.7612601,15.2734249 C13.6782935,14.9763475 13.8559693,14.6689541 14.1549124,14.5931209 L18.4080476,13.513787 C20.3893688,13.0110489 22.1582253,11.725835 22.7623669,9.77313509 C22.9796603,9.07102484 23.1281442,8.35695247 23.0963184,7.77289401 C23.0273991,6.26196924 22.3787013,5.05258852 21.1502251,4.14475185 L21.1502251,4.14475185 C19.7200391,3.0305742 16.9397804,3.82537438 16.1727784,5.46813481 L16.1727784,5.46813481 C16.1494029,5.51809036 16.1544511,5.50835605 16.1258079,5.55546922 L15.4715132,6.63208144 C11.4205267,15.0046615 9.14669344,21.3259255 8.24261002,25.4627319 C7.97987151,26.6060466 7.97936668,27.764506 8.15158821,28.5687113 C8.21617265,28.8701785 8.07854249,29.199411 7.79071646,29.3100331 C6.60191277,29.7672273 4.96879885,30.3410796 3.76646371,30.3973783 C2.99992265,30.4305211 2.61200994,29.8667653 2.60271461,28.7062207 C2.59600924,27.8696409 2.77163283,26.7480556 3.12957441,25.3416841 C3.73575729,23.0156564 5.00075635,19.6181965 6.92459355,15.149414 C8.46745387,11.5654988 10.695458,7.62420164 11.9581634,4.83971776 C12.192138,4.323569 10.1073829,4.73350736 9.57292881,4.92205881 L9.57292881,4.92205881 C6.76358788,5.91313643 3.85479679,6.59409899 2.72804245,9.35183821 C2.59673355,9.673224 2.49151085,9.9809686 2.42294269,10.2640866 C2.36591962,10.4995537 2.1419647,10.6646089 1.91333468,10.5844957 C1.12611782,10.3088183 -0.414731986,9.4832788 0.11984502,7.33754987 C0.637532399,5.25960992 1.70603892,3.62570584 5.32894628,2.08522697 C8.58396925,0.709627732 12.455085,0.0173538451 16.9423045,0.00840436421 C24.0707369,0.00530064326 27.7670301,2.3103781 28.0311844,6.92366072 Z" id="Path"></path>
                    <path d="M39.4836466,15.5014733 C39.500218,17.5795889 38.5626736,19.3010359 36.6706841,20.6657046 C34.8919507,21.9755012 32.7673036,22.6403314 30.2966332,22.6600853 C29.9555483,22.6628289 29.6144634,22.6535007 29.2732688,22.6322103 C28.9853001,22.614322 28.7234506,22.8121907 28.6925027,23.0989523 C28.6591405,23.4082113 28.6436665,23.7116539 28.6459712,24.0093899 C28.6630913,26.1414995 29.566615,27.2543054 31.3565424,27.3479172 C33.7431488,27.463807 36.1911021,26.378108 38.7004025,24.09082 C38.7849055,24.0091704 38.8555808,23.9680163 38.9124282,23.9675773 C39.0544372,23.9664799 39.1133698,24.2359018 39.0893358,24.7759529 C39.0698014,25.8827228 38.8623849,26.5860732 38.4671962,26.8861137 C36.1815544,28.7398024 33.4769094,29.6792125 30.3530417,29.7042342 C28.1947032,29.721464 26.5577592,29.2217988 25.4419902,28.2050191 C24.2404013,27.1080164 23.7306397,25.5196891 23.912815,23.4399274 C24.1454726,20.577141 25.4741453,18.042819 27.8989426,15.8371807 C30.2393467,13.7401892 32.7017864,12.6812677 35.286042,12.6606358 C36.8194972,12.6483445 37.9004773,12.8691497 38.5289821,13.3229419 C39.1571577,13.7497369 39.4754158,14.4759141 39.4836466,15.5014733 Z M35.0992574,15.9414377 C35.0916851,14.9968696 34.6761937,14.5278231 33.8525637,14.5344077 C32.8870345,14.5421996 31.9830718,15.1431586 31.1405658,16.3375044 C30.3913424,17.3998279 29.8872874,18.2252138 29.4362389,19.7649245 C29.3425174,20.0848287 29.5663955,20.4089032 29.8996885,20.4093422 C29.9171379,20.4093422 29.9345872,20.4092325 29.9520365,20.4091227 C31.2867451,20.3984775 32.3670666,20.5382916 33.4661545,19.476846 C34.5650228,18.3884034 35.1094636,17.2099705 35.0992574,15.9414377 Z" id="Shape"></path>
                    <path d="M62.7038662,20.9430281 C62.6835635,21.9419195 62.5045708,22.6450504 62.1669977,23.0526402 C58.7933523,27.3441859 55.7433424,29.5008782 53.0170778,29.5227173 C51.141111,29.5377523 50.0489371,28.589014 49.7406657,26.6765024 C49.6563822,26.1540104 48.9281199,25.8871126 48.5608062,26.2681443 C46.2233652,28.6925027 43.8750595,29.5883443 41.5156696,29.3271532 C40.3786103,29.2013864 39.5224961,28.6818575 38.9471074,27.768786 C38.4580874,26.9900414 38.2377211,26.3616463 38.2861183,25.3086511 C38.4318585,22.2305467 39.6729553,19.3866363 42.0092989,16.7768103 C44.3453132,14.1399872 46.9043277,12.87332 49.6860131,12.6890596 C50.9599234,12.610373 51.9915186,12.7947432 52.7810181,13.2422799 C53.0224553,13.3792406 53.3294097,13.3568528 53.5554827,13.1957484 C54.0550381,12.8399578 54.6683983,12.6558071 55.3956729,12.64345 C55.4229992,12.6430768 55.4493378,12.6448327 55.4763348,12.6488932 C55.6879216,12.681158 56.7079936,12.8463229 57.5371108,13.1523994 C57.8848901,13.2808001 57.9371283,13.7315194 57.7281754,14.0378154 C57.137642,14.9036968 56.433743,16.5183628 55.6168074,19.0160303 C54.6192329,22.1279359 53.809321,24.0499952 53.8179907,25.1295486 C53.8215026,25.5744514 53.9097369,25.9580073 54.1223113,26.1309641 C54.3932697,26.3514401 54.9178468,26.523958 55.262663,26.4678787 C55.7976658,26.3807418 56.7839366,25.6909997 58.4274652,24.2161479 C60.8672976,21.7747791 61.3120907,21.5102957 62.4230309,20.0376387 C62.4346638,20.0222745 62.4536495,20.0016426 62.467587,19.9881441 L62.467587,19.9881441 C62.5356284,19.9225171 62.6272648,19.9077016 62.6555788,19.9979113 C62.7033175,20.149907 62.7194499,20.4649825 62.7038662,20.9430281 Z M51.3060565,16.4583327 C51.084922,15.6630167 50.4284324,15.2507079 49.081213,15.2615726 C46.8242145,15.4575757 45.2000008,18.1018614 45.031324,18.3866475 C45.0208983,18.4042065 45.0108019,18.4197902 44.9988397,18.4362518 C43.6549127,20.2876359 42.7203314,22.3869321 42.6538264,22.5378303 C42.6510828,22.5441955 42.6486684,22.5500119 42.6461443,22.5564868 C42.3902209,23.2162688 42.4264365,23.753686 42.5912722,24.1783959 C43.0277248,25.3019567 44.4516553,25.7052665 45.6131876,25.3830576 C46.4979451,25.1376696 47.5659753,24.5167371 48.466097,23.0526402 C50.2881794,20.0690256 51.6913683,17.8444015 51.3060565,16.4583327 Z" id="Shape"></path>
                    <path d="M70.3418407,13.2472184 C70.8464444,13.3730949 70.7752204,14.068434 70.6867666,14.5809393 C70.6406741,14.8473981 70.618835,15.1268067 70.6212494,15.4189457 C70.6261879,16.0396587 70.8485295,17.1985571 71.2880549,18.8954214 C71.6699646,20.4847365 71.8364465,21.7654509 71.7875006,22.7375647 C71.6887309,24.6006914 70.6367233,26.2150281 68.6311487,27.5806845 C67.2084253,28.5751862 65.6759577,29.3162885 64.1628052,29.5084506 C63.2971432,29.6183045 62.3445638,29.7661299 61.5680141,29.367978 C61.2725828,29.2164214 61.0995162,28.9901289 60.9995393,28.7596661 C60.7652355,28.2199443 61.0178666,27.6830759 61.3072619,27.1707901 L61.3072619,27.1707901 C61.4215056,26.9683121 61.8372165,26.8541782 62.0317929,26.9812619 C62.3604767,27.1960312 62.8924067,27.4178242 63.6882714,27.4178242 C65.6254754,27.4178242 67.297757,25.9854433 67.2753692,23.1785168 C67.2631876,21.6627303 67.1044975,20.2513106 66.7994088,18.9442576 C66.6859333,18.4584202 66.0330652,18.4101327 65.7927255,18.8473535 C65.0999106,20.108314 64.2154824,21.4011002 63.1394408,22.7258221 C61.5080938,24.7092284 59.0633229,26.7706628 57.1987695,28.0002365 C56.8314558,28.2460634 57.1027434,27.8484603 56.6188814,27.717316 C55.9644769,27.5606014 55.6363418,27.3743655 55.6345834,27.158389 C55.6339275,27.0775075 55.760682,26.9415345 56.0147397,26.7504699 C65.1869377,17.9476708 59.7943288,17.5983551 65.5907963,14.9733844 C67.0330541,14.2061629 68.9154958,13.4353199 70.0499212,13.2373414 C70.153849,13.221209 70.2510823,13.2245013 70.3418407,13.2472184 Z" id="Path"></path>
                    <path d="M89.2627393,13.6397733 C89.2851106,16.4465901 86.29974,21.3557759 80.3066111,28.3673307 C74.848046,34.7538925 70.613677,37.9591904 67.6035043,37.9834358 C65.4659074,38.0003445 64.2892304,36.9776386 64.0736929,34.9148872 C64.0376968,34.57051 64.3551867,34.3088799 64.6993444,34.3474001 C65.0095911,34.382189 65.3148994,34.3983214 65.6151595,34.3959071 C67.1486147,34.3837255 68.7635001,33.8849382 70.4595962,32.8996551 C71.9863571,32.050784 73.2701443,30.987802 74.3107385,29.7109286 C74.9293664,28.9502917 75.2059217,28.0168079 75.1402947,26.9108062 C74.9394629,23.1067441 74.5015836,19.8578778 73.8267667,17.1642072 C73.4794265,15.7711147 73.0630571,14.7139492 72.5777684,13.9927105 C72.3026398,13.583694 72.4523308,12.8273372 72.9280718,12.6984976 L74.5246299,12.2662153 C75.0490973,12.1242063 75.6078048,12.0748215 76.1013244,12.3023211 C76.6699089,12.5643902 77.4073897,13.0851263 77.806639,14.09587 C78.6223674,17.3396881 79.0862559,20.6080889 79.1686738,24.0264002 C79.1815139,24.5606348 79.8634641,24.7817693 80.1661385,24.3412562 C81.9040472,21.8115434 85.3238949,16.5335075 85.3052384,14.1977126 C85.2999707,13.5476979 85.1608151,12.8322757 84.8890885,12.2453639 C84.7156927,11.870807 84.8606648,11.3412914 85.2558535,11.2221093 C85.730497,11.0788931 86.2301622,10.9514802 86.6423613,10.9480304 C88.374673,10.9343601 89.2481268,11.8315186 89.2627393,13.6397733 Z" id="Path"></path>
                </g>
            </g>
        </g>
    </g>
</svg>